<mxfile host="app.diagrams.net" agent="Mozilla/5.0 (Macintosh; Intel Mac OS X 10_15_7) AppleWebKit/537.36 (KHTML, like Gecko) Chrome/128.0.0.0 Safari/537.36" version="24.7.14">
  <diagram name="Page-1" id="TnV2LTM4L4WCZohf_L6C">
    <mxGraphModel dx="1194" dy="755" grid="1" gridSize="10" guides="1" tooltips="1" connect="1" arrows="1" fold="1" page="1" pageScale="1" pageWidth="827" pageHeight="1169" math="0" shadow="0">
      <root>
        <mxCell id="0" />
        <mxCell id="1" parent="0" />
        <UserObject label="&lt;div style=&quot;font-size: 1px&quot;&gt;&lt;p style=&quot;text-align:left;margin-left:0;margin-right:0;margin-top:0px;margin-bottom:0px;text-indent:0;vertical-align:top;direction:ltr;&quot;&gt;&lt;font style=&quot;font-size:12px;font-family:0;color:#000000;direction:ltr;letter-spacing:0px;line-height:120%;opacity:1&quot;&gt;银行内部系统&lt;/font&gt;&lt;/p&gt;&lt;/div&gt;" tags="Background" id="j1oPij_-43oQ365rZPzj-1">
          <mxCell style="verticalAlign=top;align=left;overflow=width;vsdxID=1;fillColor=#FFFFFF;gradientColor=none;shape=stencil(nZBRDoQgDERP03+WHsHFe5iISyOCQdT19kIaIxq//Jtp3zTpAFaTaUYNUkwx+F6v1EYD+AUpyRkdKCYFqACrzgf9C352LfuxyWRWg1/yhT/nRE5IsZWuZtCSK8CPeI0e/hF+jV7AJM4PO7KWCyr390bSiNtEtQM=);strokeColor=#000000;strokeWidth=2;spacingTop=-3;spacingBottom=-3;spacingLeft=-3;spacingRight=-3;points=[];labelBackgroundColor=none;rounded=0;html=1;whiteSpace=wrap;" vertex="1" parent="1">
            <mxGeometry x="1229" y="161" width="401" height="592" as="geometry" />
          </mxCell>
        </UserObject>
        <UserObject label="&lt;div style=&quot;font-size: 1px&quot;&gt;&lt;p style=&quot;text-align:left;margin-left:0;margin-right:0;margin-top:0px;margin-bottom:0px;text-indent:0;vertical-align:top;direction:ltr;&quot;&gt;&lt;font style=&quot;font-size:12px;font-family:0;color:#000000;direction:ltr;letter-spacing:0px;line-height:120%;opacity:1&quot;&gt;前置系统&lt;/font&gt;&lt;/p&gt;&lt;/div&gt;" tags="Background" id="j1oPij_-43oQ365rZPzj-2">
          <mxCell style="verticalAlign=top;align=left;overflow=width;vsdxID=2;fillColor=#FFFFFF;gradientColor=none;shape=stencil(nZBRDoQgDERP03+WHsHFe5iISyOCQdT19kIaIxq//Jtp3zTpAFaTaUYNUkwx+F6v1EYD+AUpyRkdKCYFqACrzgf9C352LfuxyWRWg1/yhT/nRE5IsZWuZtCSK8CPeI0e/hF+jV7AJM4PO7KWCyr390bSiNtEtQM=);strokeColor=#000000;strokeWidth=2;spacingTop=-3;spacingBottom=-3;spacingLeft=-3;spacingRight=-3;points=[];labelBackgroundColor=none;rounded=0;html=1;whiteSpace=wrap;" vertex="1" parent="1">
            <mxGeometry x="192" y="195" width="709" height="524" as="geometry" />
          </mxCell>
        </UserObject>
        <UserObject label="&lt;div style=&quot;font-size: 1px&quot;&gt;&lt;p style=&quot;text-align:center;margin-left:0;margin-right:0;margin-top:0px;margin-bottom:0px;text-indent:0;vertical-align:middle;direction:ltr;&quot;&gt;&lt;font style=&quot;font-size:12px;font-family:0;color:#000000;direction:ltr;letter-spacing:0px;line-height:120%;opacity:1&quot;&gt;gateway网关&lt;/font&gt;&lt;/p&gt;&lt;/div&gt;" tags="Background" id="j1oPij_-43oQ365rZPzj-3">
          <mxCell style="verticalAlign=middle;align=center;overflow=width;vsdxID=3;fillColor=#FFFFFF;gradientColor=none;shape=stencil(nZBRDoQgDERP03+WHsHFe5iISyOCQdT19kIaIxq//Jtp3zTpAFaTaUYNUkwx+F6v1EYD+AUpyRkdKCYFqACrzgf9C352LfuxyWRWg1/yhT/nRE5IsZWuZtCSK8CPeI0e/hF+jV7AJM4PO7KWCyr390bSiNtEtQM=);strokeColor=#000000;strokeWidth=2;spacingTop=-3;spacingBottom=-3;spacingLeft=-3;spacingRight=-3;points=[];labelBackgroundColor=none;rounded=0;html=1;whiteSpace=wrap;" vertex="1" parent="1">
            <mxGeometry x="1076" y="218" width="135" height="70" as="geometry" />
          </mxCell>
        </UserObject>
        <UserObject label="&lt;div style=&quot;font-size: 1px&quot;&gt;&lt;p style=&quot;text-align:center;margin-left:0;margin-right:0;margin-top:0px;margin-bottom:0px;text-indent:0;vertical-align:middle;direction:ltr;&quot;&gt;&lt;font style=&quot;font-size:12px;font-family:0;color:#000000;direction:ltr;letter-spacing:0px;line-height:120%;opacity:1&quot;&gt;netty tcp 长连接 （接入网关）&lt;/font&gt;&lt;/p&gt;&lt;/div&gt;" tags="Background" id="j1oPij_-43oQ365rZPzj-4">
          <mxCell style="verticalAlign=middle;align=center;overflow=width;vsdxID=4;fillColor=#FFFFFF;gradientColor=none;shape=stencil(nZBRDoQgDERP03+WHsHFe5iISyOCQdT19kIaIxq//Jtp3zTpAFaTaUYNUkwx+F6v1EYD+AUpyRkdKCYFqACrzgf9C352LfuxyWRWg1/yhT/nRE5IsZWuZtCSK8CPeI0e/hF+jV7AJM4PO7KWCyr390bSiNtEtQM=);strokeColor=#000000;strokeWidth=2;spacingTop=-3;spacingBottom=-3;spacingLeft=-3;spacingRight=-3;points=[];labelBackgroundColor=none;rounded=0;html=1;whiteSpace=wrap;" vertex="1" parent="1">
            <mxGeometry x="346" y="317" width="250" height="97" as="geometry" />
          </mxCell>
        </UserObject>
        <UserObject label="&lt;div style=&quot;font-size: 1px&quot;&gt;&lt;p style=&quot;text-align:center;margin-left:0;margin-right:0;margin-top:0px;margin-bottom:0px;text-indent:0;vertical-align:middle;direction:ltr;&quot;&gt;&lt;font style=&quot;font-size:12px;font-family:0;color:#000000;direction:ltr;letter-spacing:0px;line-height:120%;opacity:1&quot;&gt;sftp&lt;/font&gt;&lt;/p&gt;&lt;/div&gt;" tags="Background" id="j1oPij_-43oQ365rZPzj-5">
          <mxCell style="verticalAlign=middle;align=center;overflow=width;vsdxID=5;fillColor=#FFFFFF;gradientColor=none;shape=stencil(nZBRDoQgDERP03+WHsHFe5iISyOCQdT19kIaIxq//Jtp3zTpAFaTaUYNUkwx+F6v1EYD+AUpyRkdKCYFqACrzgf9C352LfuxyWRWg1/yhT/nRE5IsZWuZtCSK8CPeI0e/hF+jV7AJM4PO7KWCyr390bSiNtEtQM=);strokeColor=#000000;strokeWidth=2;spacingTop=-3;spacingBottom=-3;spacingLeft=-3;spacingRight=-3;points=[];labelBackgroundColor=none;rounded=0;html=1;whiteSpace=wrap;" vertex="1" parent="1">
            <mxGeometry x="356" y="613" width="289" height="63" as="geometry" />
          </mxCell>
        </UserObject>
        <UserObject label="&lt;div style=&quot;font-size: 1px&quot;&gt;&lt;p style=&quot;text-align:center;margin-left:0;margin-right:0;margin-top:0px;margin-bottom:0px;text-indent:0;vertical-align:middle;direction:ltr;&quot;&gt;&lt;font style=&quot;font-size:12px;font-family:0;color:#000000;direction:ltr;letter-spacing:0px;line-height:120%;opacity:1&quot;&gt;接出网关&lt;/font&gt;&lt;/p&gt;&lt;/div&gt;" tags="Background" id="j1oPij_-43oQ365rZPzj-6">
          <mxCell style="verticalAlign=middle;align=center;overflow=width;vsdxID=6;fillColor=#FFFFFF;gradientColor=none;shape=stencil(nZBRDoQgDERP03+WHsHFe5iISyOCQdT19kIaIxq//Jtp3zTpAFaTaUYNUkwx+F6v1EYD+AUpyRkdKCYFqACrzgf9C352LfuxyWRWg1/yhT/nRE5IsZWuZtCSK8CPeI0e/hF+jV7AJM4PO7KWCyr390bSiNtEtQM=);strokeColor=#000000;strokeWidth=2;spacingTop=-3;spacingBottom=-3;spacingLeft=-3;spacingRight=-3;points=[];labelBackgroundColor=none;rounded=0;html=1;whiteSpace=wrap;" vertex="1" parent="1">
            <mxGeometry x="1339" y="386" width="172" height="142" as="geometry" />
          </mxCell>
        </UserObject>
        <UserObject label="&lt;div style=&quot;font-size: 1px&quot;&gt;&lt;p style=&quot;text-align:center;margin-left:0;margin-right:0;margin-top:0px;margin-bottom:0px;text-indent:0;vertical-align:middle;direction:ltr;&quot;&gt;&lt;font style=&quot;font-size:12px;font-family:0;color:#000000;direction:ltr;letter-spacing:0px;line-height:120%;opacity:1&quot;&gt;netty http（接入网关）&lt;/font&gt;&lt;/p&gt;&lt;/div&gt;" tags="Background" id="j1oPij_-43oQ365rZPzj-7">
          <mxCell style="verticalAlign=middle;align=center;overflow=width;vsdxID=7;fillColor=#FFFFFF;gradientColor=none;shape=stencil(lVJBEoIwDHxNr502VZQz4j+YoUhHpFhA8fdSg9ACg+Mtm2y6mzRERHWeVJIAqxujr/Kp0iYn4kQAVJlLo5o+IiImIsq0kRej2zJFXCWWaaObftgXOuxjtgPYC9GB7vgncUbuvU1Sy+U+2YcdIOQ0CAYCuIThrUKVjm54pGLnabMNYc5+SI91WB/EF5/ogxmg+/Af+THxNeCOM/O07mDa1Sp7e/EL+dn0i3l88e0/74PpWDJVFHhrbn1+XH0KD1PEbw==);strokeColor=#000000;strokeWidth=2;spacingTop=-3;spacingBottom=-3;spacingLeft=-3;spacingRight=-3;points=[];labelBackgroundColor=none;rounded=0;html=1;whiteSpace=wrap;" vertex="1" parent="1">
            <mxGeometry x="351" y="226" width="241" height="54" as="geometry" />
          </mxCell>
        </UserObject>
        <UserObject label="&lt;div style=&quot;font-size: 1px&quot;&gt;&lt;p style=&quot;text-align:center;margin-left:0;margin-right:0;margin-top:0px;margin-bottom:0px;text-indent:0;vertical-align:middle;direction:ltr;&quot;&gt;&lt;font style=&quot;font-size:12px;font-family:0;color:#000000;direction:ltr;letter-spacing:0px;line-height:120%;opacity:1&quot;&gt;transform 协议解析&lt;/font&gt;&lt;/p&gt;&lt;/div&gt;" tags="Background" id="j1oPij_-43oQ365rZPzj-8">
          <mxCell style="verticalAlign=middle;align=center;overflow=width;vsdxID=8;fillColor=#FFFFFF;gradientColor=none;shape=stencil(lVLRDoMgDPwaXgmWLcRn5/7DRBxkThzq5v5+sroJakj21muv3LWU8KxTRSsJsK635iqfuuwV4ScCoBslre6niPCc8KwyVl6sGZoScVs4potu5uFeGLGPuQ5gL0SCHpJP4ozc+1CUjpuE5BCOgBAo4zMBfML8Vq0bTzcVNBWBNosIJywuvdRhf5BQfKHPZoAe03/kf4mvAX+claddB96udtnxxW/kV9Nv5gnF438+BcuxVLqu8db8+vq4phQeJs/f);strokeColor=#000000;strokeWidth=2;spacingTop=-3;spacingBottom=-3;spacingLeft=-3;spacingRight=-3;points=[];labelBackgroundColor=none;rounded=0;html=1;whiteSpace=wrap;" vertex="1" parent="1">
            <mxGeometry x="346" y="462" width="197" height="54" as="geometry" />
          </mxCell>
        </UserObject>
        <UserObject label="&lt;div style=&quot;font-size: 1px&quot;&gt;&lt;p style=&quot;text-align:center;margin-left:0;margin-right:0;margin-top:0px;margin-bottom:0px;text-indent:0;vertical-align:middle;direction:ltr;&quot;&gt;&lt;font style=&quot;font-size:12px;font-family:0;color:#000000;direction:ltr;letter-spacing:0px;line-height:120%;opacity:1&quot;&gt;内部业务服务&lt;/font&gt;&lt;/p&gt;&lt;/div&gt;" tags="Background" id="j1oPij_-43oQ365rZPzj-9">
          <mxCell style="verticalAlign=middle;align=center;overflow=width;vsdxID=9;fillColor=#FFFFFF;gradientColor=none;shape=stencil(lVLRDoIwDPyavS5bJ0GeEf+DhCGLyHCA4t/LLMoGZIlvvfa6u3YlIu2qvJUEWNcbfZVPVfQVEScCoJpKGtVPEREZEWmpjbwYPTQF4ja3TBvd9MO+MGIfsx3AXohieuCfxBm59yEvLJf7ZB+OgPBAeTwTwCXMb9WqcXSTiB6Fp80CwpyFpZc67A/iiy/02QzQKPlH/pf4GnDHWXnadeDsapcdXvxGfjX9Zh5fPPznU7AcS6nqGm/Nra+Pa0rhYYrsDQ==);strokeColor=#000000;strokeWidth=2;spacingTop=-3;spacingBottom=-3;spacingLeft=-3;spacingRight=-3;points=[];labelBackgroundColor=none;rounded=0;html=1;whiteSpace=wrap;" vertex="1" parent="1">
            <mxGeometry x="1423" y="226" width="96" height="54" as="geometry" />
          </mxCell>
        </UserObject>
        <UserObject label="&lt;div style=&quot;font-size: 1px&quot;&gt;&lt;p style=&quot;text-align:center;margin-left:0;margin-right:0;margin-top:0px;margin-bottom:0px;text-indent:0;vertical-align:middle;direction:ltr;&quot;&gt;&lt;font style=&quot;font-size:12px;font-family:0;color:#000000;direction:ltr;letter-spacing:0px;line-height:120%;opacity:1&quot;&gt;只转http 和 tcp 协议&lt;/font&gt;&lt;/p&gt;&lt;/div&gt;" tags="Background" id="j1oPij_-43oQ365rZPzj-10">
          <mxCell style="verticalAlign=middle;align=center;overflow=width;vsdxID=10;fillColor=#FFFFFF;gradientColor=none;shape=stencil(lVJBEoIwDHxNr52SOghnxH8wQ5GOSLGA4u+lBqEFhPGWTTbdbBrCozpPKkGA1Y1WV/GUaZMTfiIAssyFlk0fER4THmVKi4tWbZkirhLDNNFNPcwLHfYx0wHshchjlB8+mTOS722SGrLnsl3YwdBNj/5AAJswvFXI0hIOAwoHR5xtCHtsR3qsww8nrvrERxyE1Pf/0R8T3wlsP7Oh1ieYlrXK3t78Qn5mf+HHFd/59T6Y7iWTRYHnZtfn99Wn8DZ5/AY=);strokeColor=#000000;strokeWidth=2;spacingTop=-3;spacingBottom=-3;spacingLeft=-3;spacingRight=-3;points=[];labelBackgroundColor=none;rounded=0;html=1;whiteSpace=wrap;" vertex="1" parent="1">
            <mxGeometry x="332" y="544" width="226" height="38" as="geometry" />
          </mxCell>
        </UserObject>
        <UserObject label="&lt;div style=&quot;font-size: 1px&quot;&gt;&lt;p style=&quot;text-align:center;margin-left:0;margin-right:0;margin-top:0px;margin-bottom:0px;text-indent:0;vertical-align:middle;direction:ltr;&quot;&gt;&lt;font style=&quot;font-size:12px;font-family:0;color:#000000;direction:ltr;letter-spacing:0px;line-height:120%;opacity:1&quot;&gt;http&lt;/font&gt;&lt;/p&gt;&lt;/div&gt;" tags="Background" id="j1oPij_-43oQ365rZPzj-11">
          <mxCell style="vsdxID=11;edgeStyle=none;startArrow=none;endArrow=block;startSize=5;endSize=5;strokeWidth=2;spacingTop=0;spacingBottom=0;spacingLeft=0;spacingRight=0;verticalAlign=middle;html=1;labelBackgroundColor=#ffffff;rounded=0;align=center;exitX=0.005813953488372093;exitY=0.8661971830985915;exitDx=0;exitDy=0;exitPerimeter=0;entryX=0.9949238578680203;entryY=0.8518518518518519;entryDx=0;entryDy=0;entryPerimeter=0;" edge="1" parent="1" source="j1oPij_-43oQ365rZPzj-6" target="j1oPij_-43oQ365rZPzj-8">
            <mxGeometry relative="1" as="geometry">
              <mxPoint x="-265" as="offset" />
              <Array as="points">
                <mxPoint x="941.47" y="509" />
                <mxPoint x="941.47" y="508.29" />
              </Array>
            </mxGeometry>
          </mxCell>
        </UserObject>
        <mxCell id="j1oPij_-43oQ365rZPzj-12" vertex="1" parent="1">
          <mxGeometry x="90" y="489" as="geometry" />
        </mxCell>
        <UserObject label="&lt;div style=&quot;font-size: 1px&quot;&gt;&lt;p style=&quot;text-align:center;margin-left:0;margin-right:0;margin-top:0px;margin-bottom:0px;text-indent:0;vertical-align:middle;direction:ltr;&quot;&gt;&lt;font style=&quot;font-size:12px;font-family:0;color:#000000;direction:ltr;letter-spacing:0px;line-height:120%;opacity:1&quot;&gt;xml 等协议&lt;/font&gt;&lt;/p&gt;&lt;/div&gt;" tags="Background" id="j1oPij_-43oQ365rZPzj-13">
          <mxCell style="vsdxID=12;edgeStyle=none;startArrow=none;endArrow=block;startSize=5;endSize=5;strokeWidth=2;spacingTop=0;spacingBottom=0;spacingLeft=0;spacingRight=0;verticalAlign=middle;html=1;labelBackgroundColor=#ffffff;rounded=0;align=center;exitX=0;exitY=0.5;exitDx=0;exitDy=0;exitPerimeter=0;" edge="1" parent="1" source="j1oPij_-43oQ365rZPzj-8" target="j1oPij_-43oQ365rZPzj-12">
            <mxGeometry relative="1" as="geometry">
              <mxPoint x="-1" y="-1" as="offset" />
              <Array as="points">
                <mxPoint x="217.54" y="489" />
                <mxPoint x="217.54" y="489" />
              </Array>
            </mxGeometry>
          </mxCell>
        </UserObject>
        <UserObject label="" tags="Background" id="j1oPij_-43oQ365rZPzj-14">
          <mxCell style="vsdxID=13;edgeStyle=none;startArrow=none;endArrow=block;startSize=5;endSize=5;strokeWidth=2;spacingTop=0;spacingBottom=0;spacingLeft=0;spacingRight=0;verticalAlign=middle;html=1;labelBackgroundColor=#ffffff;rounded=0;exitX=0.4962962962962963;exitY=1;exitDx=0;exitDy=0;exitPerimeter=0;entryX=0.5;entryY=0;entryDx=0;entryDy=0;entryPerimeter=0;" edge="1" parent="1" source="j1oPij_-43oQ365rZPzj-3" target="j1oPij_-43oQ365rZPzj-6">
            <mxGeometry relative="1" as="geometry">
              <mxPoint x="-141" y="150" as="offset" />
              <Array as="points">
                <mxPoint x="1143" y="337" />
                <mxPoint x="1425" y="337" />
              </Array>
            </mxGeometry>
          </mxCell>
        </UserObject>
        <mxCell id="j1oPij_-43oQ365rZPzj-15" vertex="1" parent="1">
          <mxGeometry x="93" y="563" as="geometry" />
        </mxCell>
        <UserObject label="" tags="Background" id="j1oPij_-43oQ365rZPzj-16">
          <mxCell style="vsdxID=14;edgeStyle=none;startArrow=none;endArrow=block;startSize=5;endSize=5;strokeWidth=2;spacingTop=0;spacingBottom=0;spacingLeft=0;spacingRight=0;verticalAlign=middle;html=1;labelBackgroundColor=#ffffff;rounded=0;exitX=0;exitY=0.5;exitDx=0;exitDy=0;exitPerimeter=0;" edge="1" parent="1" source="j1oPij_-43oQ365rZPzj-10" target="j1oPij_-43oQ365rZPzj-15">
            <mxGeometry relative="1" as="geometry">
              <mxPoint x="119" y="102" as="offset" />
              <Array as="points">
                <mxPoint x="212.67" y="563" />
                <mxPoint x="212.67" y="563" />
              </Array>
            </mxGeometry>
          </mxCell>
        </UserObject>
        <mxCell id="j1oPij_-43oQ365rZPzj-17" vertex="1" parent="1">
          <mxGeometry x="592" y="63" as="geometry" />
        </mxCell>
        <UserObject label="&lt;div style=&quot;font-size: 1px&quot;&gt;&lt;p style=&quot;text-align:center;margin-left:0;margin-right:0;margin-top:0px;margin-bottom:0px;text-indent:0;vertical-align:middle;direction:ltr;&quot;&gt;&lt;font style=&quot;font-size:12px;font-family:0;color:#000000;direction:ltr;letter-spacing:0px;line-height:120%;opacity:1&quot;&gt;路由配置 http&lt;/font&gt;&lt;/p&gt;&lt;/div&gt;" tags="Background" id="j1oPij_-43oQ365rZPzj-18">
          <mxCell style="vsdxID=15;edgeStyle=none;startArrow=none;endArrow=block;startSize=5;endSize=5;strokeWidth=2;spacingTop=0;spacingBottom=0;spacingLeft=0;spacingRight=0;verticalAlign=middle;html=1;labelBackgroundColor=#ffffff;rounded=0;align=center;entryX=0.4962962962962963;entryY=0;entryDx=0;entryDy=0;entryPerimeter=0;" edge="1" parent="1" source="j1oPij_-43oQ365rZPzj-17" target="j1oPij_-43oQ365rZPzj-3">
            <mxGeometry relative="1" as="geometry">
              <mxPoint x="-75" y="-1" as="offset" />
              <Array as="points">
                <mxPoint x="592" y="64.55" />
                <mxPoint x="1143.07" y="64.55" />
              </Array>
            </mxGeometry>
          </mxCell>
        </UserObject>
        <UserObject label="&lt;div style=&quot;font-size: 1px&quot;&gt;&lt;p style=&quot;text-align:center;margin-left:0;margin-right:0;margin-top:0px;margin-bottom:0px;text-indent:0;vertical-align:middle;direction:ltr;&quot;&gt;&lt;font style=&quot;font-size:12px;font-family:0;color:#000000;direction:ltr;letter-spacing:0px;line-height:120%;opacity:1&quot;&gt;http&lt;/font&gt;&lt;/p&gt;&lt;/div&gt;" tags="Background" id="j1oPij_-43oQ365rZPzj-19">
          <mxCell style="vsdxID=16;edgeStyle=none;startArrow=none;endArrow=block;startSize=5;endSize=5;strokeWidth=2;spacingTop=0;spacingBottom=0;spacingLeft=0;spacingRight=0;verticalAlign=middle;html=1;labelBackgroundColor=#ffffff;rounded=0;align=center;exitX=1;exitY=0.5;exitDx=0;exitDy=0;exitPerimeter=0;entryX=0;entryY=0.5;entryDx=0;entryDy=0;entryPerimeter=0;" edge="1" parent="1" source="j1oPij_-43oQ365rZPzj-7" target="j1oPij_-43oQ365rZPzj-3">
            <mxGeometry relative="1" as="geometry">
              <mxPoint x="132" as="offset" />
              <Array as="points">
                <mxPoint x="833.79" y="253" />
                <mxPoint x="833.79" y="253" />
              </Array>
            </mxGeometry>
          </mxCell>
        </UserObject>
        <mxCell id="j1oPij_-43oQ365rZPzj-20" vertex="1" parent="1">
          <mxGeometry x="95" y="644" as="geometry" />
        </mxCell>
        <UserObject label="" tags="Background" id="j1oPij_-43oQ365rZPzj-21">
          <mxCell style="vsdxID=17;edgeStyle=none;startArrow=none;endArrow=block;startSize=5;endSize=5;strokeWidth=2;spacingTop=0;spacingBottom=0;spacingLeft=0;spacingRight=0;verticalAlign=middle;html=1;labelBackgroundColor=#ffffff;rounded=0;exitX=0;exitY=0.49206349206349204;exitDx=0;exitDy=0;exitPerimeter=0;" edge="1" parent="1" source="j1oPij_-43oQ365rZPzj-5" target="j1oPij_-43oQ365rZPzj-20">
            <mxGeometry relative="1" as="geometry">
              <mxPoint x="131" y="102" as="offset" />
              <Array as="points">
                <mxPoint x="225.5" y="644" />
                <mxPoint x="225.5" y="644" />
              </Array>
            </mxGeometry>
          </mxCell>
        </UserObject>
        <mxCell id="j1oPij_-43oQ365rZPzj-22" vertex="1" parent="1">
          <mxGeometry x="588" y="132" as="geometry" />
        </mxCell>
        <UserObject label="&lt;div style=&quot;font-size: 1px&quot;&gt;&lt;p style=&quot;text-align:center;margin-left:0;margin-right:0;margin-top:0px;margin-bottom:0px;text-indent:0;vertical-align:middle;direction:ltr;&quot;&gt;&lt;font style=&quot;font-size:12px;font-family:0;color:#000000;direction:ltr;letter-spacing:0px;line-height:120%;opacity:1&quot;&gt;web 页面 http&lt;/font&gt;&lt;/p&gt;&lt;/div&gt;" tags="Background" id="j1oPij_-43oQ365rZPzj-23">
          <mxCell style="vsdxID=18;edgeStyle=none;startArrow=none;endArrow=block;startSize=5;endSize=5;strokeWidth=2;spacingTop=0;spacingBottom=0;spacingLeft=0;spacingRight=0;verticalAlign=middle;html=1;labelBackgroundColor=#ffffff;rounded=0;align=center;entryX=0;entryY=0.17142857142857143;entryDx=0;entryDy=0;entryPerimeter=0;" edge="1" parent="1" source="j1oPij_-43oQ365rZPzj-22" target="j1oPij_-43oQ365rZPzj-3">
            <mxGeometry relative="1" as="geometry">
              <mxPoint x="-62" y="-38" as="offset" />
              <Array as="points">
                <mxPoint x="958.88" y="132" />
                <mxPoint x="958.88" y="230" />
              </Array>
            </mxGeometry>
          </mxCell>
        </UserObject>
        <UserObject label="" tags="Background" id="j1oPij_-43oQ365rZPzj-24">
          <mxCell style="vsdxID=19;edgeStyle=none;startArrow=none;endArrow=block;startSize=5;endSize=5;strokeWidth=2;spacingTop=0;spacingBottom=0;spacingLeft=0;spacingRight=0;verticalAlign=middle;html=1;labelBackgroundColor=#ffffff;rounded=0;exitX=0.5;exitY=1;exitDx=0;exitDy=0;exitPerimeter=0;entryX=0.7674418604651163;entryY=0;entryDx=0;entryDy=0;entryPerimeter=0;" edge="1" parent="1" source="j1oPij_-43oQ365rZPzj-9" target="j1oPij_-43oQ365rZPzj-6">
            <mxGeometry relative="1" as="geometry">
              <mxPoint y="154" as="offset" />
              <Array as="points">
                <mxPoint x="1471" y="333" />
                <mxPoint x="1471" y="333" />
              </Array>
            </mxGeometry>
          </mxCell>
        </UserObject>
        <UserObject label="&lt;div style=&quot;font-size: 1px&quot;&gt;&lt;p style=&quot;text-align:center;margin-left:0;margin-right:0;margin-top:0px;margin-bottom:0px;text-indent:0;vertical-align:middle;direction:ltr;&quot;&gt;&lt;font style=&quot;font-size:12px;font-family:0;color:#000000;direction:ltr;letter-spacing:0px;line-height:120%;opacity:1&quot;&gt;http&lt;/font&gt;&lt;/p&gt;&lt;/div&gt;" tags="Background" id="j1oPij_-43oQ365rZPzj-25">
          <mxCell style="vsdxID=20;edgeStyle=none;startArrow=none;endArrow=block;startSize=5;endSize=5;strokeWidth=2;spacingTop=0;spacingBottom=0;spacingLeft=0;spacingRight=0;verticalAlign=middle;html=1;labelBackgroundColor=#ffffff;rounded=0;align=center;exitX=1;exitY=0.4948453608247423;exitDx=0;exitDy=0;exitPerimeter=0;entryX=0;entryY=0.8285714285714286;entryDx=0;entryDy=0;entryPerimeter=0;" edge="1" parent="1" source="j1oPij_-43oQ365rZPzj-4" target="j1oPij_-43oQ365rZPzj-3">
            <mxGeometry relative="1" as="geometry">
              <mxPoint x="-176" as="offset" />
              <Array as="points">
                <mxPoint x="955.3" y="365" />
                <mxPoint x="955.3" y="275.5" />
              </Array>
            </mxGeometry>
          </mxCell>
        </UserObject>
        <UserObject label="" tags="Background" id="j1oPij_-43oQ365rZPzj-26">
          <mxCell style="vsdxID=21;edgeStyle=none;startArrow=none;endArrow=block;startSize=5;endSize=5;strokeWidth=2;spacingTop=0;spacingBottom=0;spacingLeft=0;spacingRight=0;verticalAlign=middle;html=1;labelBackgroundColor=#ffffff;rounded=0;exitX=1;exitY=0.5;exitDx=0;exitDy=0;exitPerimeter=0;entryX=0;entryY=0.5;entryDx=0;entryDy=0;entryPerimeter=0;" edge="1" parent="1" source="j1oPij_-43oQ365rZPzj-3" target="j1oPij_-43oQ365rZPzj-9">
            <mxGeometry relative="1" as="geometry">
              <mxPoint x="-106" y="102" as="offset" />
              <Array as="points">
                <mxPoint x="1317.33" y="253" />
                <mxPoint x="1317.33" y="253" />
              </Array>
            </mxGeometry>
          </mxCell>
        </UserObject>
        <mxCell id="j1oPij_-43oQ365rZPzj-27" vertex="1" parent="1">
          <mxGeometry x="105" y="253" as="geometry" />
        </mxCell>
        <UserObject label="&lt;div style=&quot;font-size: 1px&quot;&gt;&lt;p style=&quot;text-align:center;margin-left:0;margin-right:0;margin-top:0px;margin-bottom:0px;text-indent:0;vertical-align:middle;direction:ltr;&quot;&gt;&lt;font style=&quot;font-size:12px;font-family:0;color:#000000;direction:ltr;letter-spacing:0px;line-height:120%;opacity:1&quot;&gt;http 外部流量&lt;/font&gt;&lt;/p&gt;&lt;/div&gt;" tags="Background" id="j1oPij_-43oQ365rZPzj-28">
          <mxCell style="vsdxID=22;edgeStyle=none;startArrow=none;endArrow=block;startSize=5;endSize=5;strokeWidth=2;spacingTop=0;spacingBottom=0;spacingLeft=0;spacingRight=0;verticalAlign=middle;html=1;labelBackgroundColor=#ffffff;rounded=0;align=center;entryX=0;entryY=0.5;entryDx=0;entryDy=0;entryPerimeter=0;" edge="1" parent="1" source="j1oPij_-43oQ365rZPzj-27" target="j1oPij_-43oQ365rZPzj-7">
            <mxGeometry relative="1" as="geometry">
              <mxPoint x="-6" as="offset" />
              <Array as="points">
                <mxPoint x="228.21" y="253" />
                <mxPoint x="228.21" y="253" />
              </Array>
            </mxGeometry>
          </mxCell>
        </UserObject>
        <mxCell id="j1oPij_-43oQ365rZPzj-29" vertex="1" parent="1">
          <mxGeometry x="97" y="359" as="geometry" />
        </mxCell>
        <UserObject label="&lt;div style=&quot;font-size: 1px&quot;&gt;&lt;p style=&quot;text-align:center;margin-left:0;margin-right:0;margin-top:0px;margin-bottom:0px;text-indent:0;vertical-align:middle;direction:ltr;&quot;&gt;&lt;font style=&quot;font-size:12px;font-family:0;color:#000000;direction:ltr;letter-spacing:0px;line-height:120%;opacity:1&quot;&gt;外部tcp 客户端&lt;/font&gt;&lt;/p&gt;&lt;/div&gt;" tags="Background" id="j1oPij_-43oQ365rZPzj-30">
          <mxCell style="vsdxID=23;edgeStyle=none;startArrow=none;endArrow=block;startSize=5;endSize=5;strokeWidth=2;spacingTop=0;spacingBottom=0;spacingLeft=0;spacingRight=0;verticalAlign=middle;html=1;labelBackgroundColor=#ffffff;rounded=0;align=center;entryX=0;entryY=0.4329896907216495;entryDx=0;entryDy=0;entryPerimeter=0;" edge="1" parent="1" source="j1oPij_-43oQ365rZPzj-29" target="j1oPij_-43oQ365rZPzj-4">
            <mxGeometry relative="1" as="geometry">
              <mxPoint x="-132" y="-1" as="offset" />
              <Array as="points">
                <mxPoint x="221.96" y="359" />
                <mxPoint x="221.96" y="359" />
              </Array>
            </mxGeometry>
          </mxCell>
        </UserObject>
        <UserObject label="&lt;div style=&quot;font-size: 1px&quot;&gt;&lt;p style=&quot;text-align:center;margin-left:0;margin-right:0;margin-top:0px;margin-bottom:0px;text-indent:0;vertical-align:middle;direction:ltr;&quot;&gt;&lt;font style=&quot;font-size:12px;font-family:0;color:#000000;direction:ltr;letter-spacing:0px;line-height:120%;opacity:1&quot;&gt;http&lt;/font&gt;&lt;/p&gt;&lt;/div&gt;" tags="Background" id="j1oPij_-43oQ365rZPzj-31">
          <mxCell style="vsdxID=24;edgeStyle=none;startArrow=none;endArrow=block;startSize=5;endSize=5;strokeWidth=2;spacingTop=0;spacingBottom=0;spacingLeft=0;spacingRight=0;verticalAlign=middle;html=1;labelBackgroundColor=#ffffff;rounded=0;align=center;exitX=0.5;exitY=1;exitDx=0;exitDy=0;exitPerimeter=0;entryX=1;entryY=0.49206349206349204;entryDx=0;entryDy=0;entryPerimeter=0;" edge="1" parent="1" source="j1oPij_-43oQ365rZPzj-6" target="j1oPij_-43oQ365rZPzj-5">
            <mxGeometry relative="1" as="geometry">
              <mxPoint x="332" y="-53" as="offset" />
              <Array as="points">
                <mxPoint x="1425" y="644.5" />
              </Array>
            </mxGeometry>
          </mxCell>
        </UserObject>
        <UserObject label="" tags="Background" id="j1oPij_-43oQ365rZPzj-32">
          <mxCell style="vsdxID=25;edgeStyle=none;startArrow=none;endArrow=block;startSize=5;endSize=5;strokeWidth=2;spacingTop=0;spacingBottom=0;spacingLeft=0;spacingRight=0;verticalAlign=middle;html=1;labelBackgroundColor=#ffffff;rounded=0;exitX=0.06395348837209303;exitY=1;exitDx=0;exitDy=0;exitPerimeter=0;entryX=1;entryY=0.5263157894736842;entryDx=0;entryDy=0;entryPerimeter=0;" edge="1" parent="1" source="j1oPij_-43oQ365rZPzj-6" target="j1oPij_-43oQ365rZPzj-10">
            <mxGeometry relative="1" as="geometry">
              <mxPoint x="378" y="101" as="offset" />
              <Array as="points">
                <mxPoint x="1350" y="564" />
              </Array>
            </mxGeometry>
          </mxCell>
        </UserObject>
        <UserObject label="&lt;div style=&quot;font-size: 1px&quot;&gt;&lt;p style=&quot;text-align:center;margin-left:0;margin-right:0;margin-top:0px;margin-bottom:0px;text-indent:0;vertical-align:middle;direction:ltr;&quot;&gt;&lt;font style=&quot;font-size:12px;font-family:0;color:#000000;direction:ltr;letter-spacing:0px;line-height:120%;opacity:1&quot;&gt;http&lt;/font&gt;&lt;/p&gt;&lt;/div&gt;" tags="Background" id="j1oPij_-43oQ365rZPzj-33">
          <mxCell style="vsdxID=26;edgeStyle=none;startArrow=none;endArrow=block;startSize=5;endSize=5;strokeWidth=2;spacingTop=0;spacingBottom=0;spacingLeft=0;spacingRight=0;verticalAlign=middle;html=1;labelBackgroundColor=#ffffff;rounded=0;align=center;exitX=0.24444444444444444;exitY=1;exitDx=0;exitDy=0;exitPerimeter=0;entryX=1;entryY=0.09259259259259259;entryDx=0;entryDy=0;entryPerimeter=0;" edge="1" parent="1" source="j1oPij_-43oQ365rZPzj-3" target="j1oPij_-43oQ365rZPzj-8">
            <mxGeometry relative="1" as="geometry">
              <mxPoint x="35" as="offset" />
              <Array as="points">
                <mxPoint x="1109" y="302.36" />
                <mxPoint x="1012.94" y="302.36" />
                <mxPoint x="1012.94" y="467.5" />
              </Array>
            </mxGeometry>
          </mxCell>
        </UserObject>
      </root>
    </mxGraphModel>
  </diagram>
</mxfile>
